<svg width="1063" height="627" viewBox="0 0 1063 627" fill="none" xmlns="http://www.w3.org/2000/svg">
<path d="M91.2234 78.6674L80.2156 66.5805L239.723 67.1676L271.223 88.6676L271.223 388.668L282.723 398.668L83.7233 555.168L91.2234 538.667L91.2234 78.6674Z" stroke="white" stroke-width="3"/>
<path d="M203.223 137.668L159.723 137.668L159.223 363.168L203.223 328.168L203.223 137.668Z" stroke="white" stroke-width="3"/>
<path d="M313.723 70.1755L285.569 87.1755L286.223 380.168L379.223 455.668L472.223 380.168L472.223 87.1755L449.223 70.1754L313.723 70.1755Z" stroke="white" stroke-width="3"/>
<path d="M403.417 137.338L357.417 137.338L357.417 327.168L403.417 364.168L403.417 137.338Z" stroke="white" stroke-width="3"/>
<path d="M510.223 68.6479L488.383 85.648L489.037 378.64L582.037 454.14L675.037 378.64L675.037 86.1676L645.723 68.6479L510.223 68.6479Z" stroke="white" stroke-width="3"/>
<path d="M603.723 137.168L557.723 137.168L557.723 362.64L603.723 325.668L603.723 137.168Z" stroke="white" stroke-width="3"/>
<path d="M689.223 82.6676L680.158 67.2293L770.723 67.2293L796.223 153.168L822.723 67.2293L920.723 67.2293L901.723 82.6676L901.723 545.668L913.723 577.168L825.723 506.168L834.223 497.168L834.223 287.168L792.223 455.668L747.723 261.668L747.723 447.168L680.223 389.168L689.223 378.668L689.223 82.6676Z" stroke="white" stroke-width="3"/>
</svg>
