<svg width="58" height="69" viewBox="0 0 58 69" fill="none" xmlns="http://www.w3.org/2000/svg">
<g clip-path="url(#clip0_101_17)">
<path d="M56.7844 53.7719C55.7431 56.1826 54.5105 58.4016 53.0824 60.4417C51.1357 63.2229 49.5419 65.1481 48.3135 66.2171C46.4094 67.9719 44.3692 68.8706 42.1845 68.9217C40.6162 68.9217 38.7248 68.4744 36.5231 67.5673C34.3142 66.6643 32.2842 66.2171 30.4281 66.2171C28.4815 66.2171 26.3937 66.6643 24.1606 67.5673C21.9241 68.4744 20.1223 68.9472 18.7448 68.9941C16.6498 69.0835 14.5616 68.1593 12.4773 66.2171C11.1469 65.0544 9.48291 63.0611 7.48951 60.2373C5.35074 57.2218 3.59238 53.7251 2.21485 49.7385C0.739558 45.4326 0 41.2629 0 37.2261C0 32.6019 0.997128 28.6137 2.99436 25.2715C4.564 22.587 6.65219 20.4694 9.26572 18.9148C11.8792 17.3602 14.7032 16.568 17.7443 16.5173C19.4083 16.5173 21.5904 17.0331 24.3021 18.0468C27.0062 19.0639 28.7424 19.5797 29.5037 19.5797C30.0728 19.5797 32.0016 18.9766 35.2714 17.7742C38.3635 16.6592 40.9732 16.1975 43.1111 16.3793C48.9043 16.8478 53.2566 19.1363 56.1511 23.2591C50.97 26.4049 48.407 30.811 48.458 36.4633C48.5048 40.8659 50.0986 44.5296 53.2311 47.4386C54.6507 48.7888 56.2361 49.8322 58 50.5733C57.6175 51.685 57.2137 52.7497 56.7844 53.7719ZM43.4979 1.38039C43.4979 4.83118 42.2398 8.05317 39.7321 11.0354C36.7058 14.5807 33.0455 16.6294 29.0761 16.3061C29.0255 15.8921 28.9962 15.4564 28.9962 14.9985C28.9962 11.6858 30.4353 8.14048 32.9911 5.24172C34.267 3.77402 35.8898 2.55365 37.8577 1.58014C39.8213 0.621158 41.6787 0.0908185 43.4256 0C43.4766 0.461317 43.4979 0.922662 43.4979 1.38035V1.38039Z" fill="white"/>
</g>
<defs>
<clipPath id="clip0_101_17">
<rect width="58" height="69" fill="white"/>
</clipPath>
</defs>
</svg>
