<svg width="82" height="82" viewBox="0 0 82 82" fill="none" xmlns="http://www.w3.org/2000/svg">
<path d="M27.0144 6.25024C22.632 7.03379 19.106 10.2774 17.9944 14.5414C17.5935 16.0811 17.5662 16.9831 17.6117 28.9278C17.6391 39.8976 17.6482 40.1527 17.8304 41C18.8417 45.5647 22.0853 48.8173 26.6955 49.8925C27.2969 50.0291 28.0622 50.0565 32.9913 50.0838C38.0935 50.1202 38.622 50.1111 38.7586 49.9745C38.8953 49.8378 38.9044 48.0793 38.9044 28.1442C38.9044 13.366 38.8771 6.40512 38.8133 6.27757C38.7222 6.11357 38.5673 6.10446 33.2282 6.11357C28.8913 6.12268 27.5884 6.15001 27.0144 6.25024ZM35.26 28.1169V46.576L31.5517 46.5305C28.1351 46.494 27.7706 46.4758 27.0873 46.3027C24.1535 45.5465 21.976 43.2869 21.3655 40.344C21.1651 39.4238 21.1651 16.7553 21.3564 15.8534C21.9031 13.2931 23.6797 11.1702 26.076 10.2136C27.2786 9.73068 27.8344 9.67601 31.734 9.6669L35.26 9.65779V28.1169Z" fill="white"/>
<path d="M27.798 15.2247C27.224 15.334 26.3493 15.7714 25.8846 16.1814C24.928 17.0105 24.4542 18.1858 24.5271 19.5707C24.5635 20.2905 24.6091 20.4818 24.9006 21.0649C25.3289 21.9487 25.9758 22.5956 26.8595 23.0329C27.47 23.3336 27.6249 23.37 28.4175 23.3974C29.1373 23.4247 29.3924 23.3974 29.8753 23.2334C31.8524 22.5683 33.046 20.6458 32.7089 18.6778C32.3171 16.3363 30.094 14.7692 27.798 15.2247Z" fill="white"/>
<path d="M43.3415 6.16825C43.305 6.19558 43.2777 16.072 43.2777 28.1169C43.2777 47.9883 43.2868 50.0018 43.4235 50.0565C43.6695 50.1476 50.7397 50.1111 51.6144 50.02C55.3135 49.6009 58.5753 47.3505 60.3519 44.0067C60.5797 43.5785 60.8804 42.8587 61.0353 42.4123C61.6093 40.6994 61.591 41.1549 61.591 28.0623C61.591 17.6118 61.5728 16.0538 61.4453 15.3887C60.5433 10.6418 56.9262 7.06114 52.1702 6.24114C51.5324 6.13181 50.5484 6.10447 47.3777 6.10447C45.191 6.10447 43.3688 6.13181 43.3415 6.16825ZM53.0722 26.0123C54.4935 26.3858 55.6597 27.47 56.1335 28.8549C56.4342 29.7114 56.425 30.9687 56.1244 31.7523C55.5686 33.1918 54.4753 34.2031 53.0722 34.5767C50.7944 35.1689 48.3708 33.7931 47.7057 31.5336C47.5053 30.8411 47.5144 29.6749 47.7422 28.9643C48.4255 26.732 50.7944 25.42 53.0722 26.0123Z" fill="white"/>
<path d="M68.2695 56.7076C66.8572 57.1722 66.019 58.5298 66.2559 60.0058C66.4017 60.9534 66.9484 61.7005 67.7866 62.1287C68.9255 62.6936 70.1372 62.5478 71.0484 61.7278C71.7317 61.1082 72.0232 60.4614 72.0232 59.5411C72.0232 58.6756 71.7681 58.0287 71.1941 57.4547C70.4744 56.7349 69.1806 56.4069 68.2695 56.7076ZM69.8821 58.0378C70.4288 58.3202 70.7295 58.7758 70.775 59.3954C70.8297 60.2062 70.4835 60.7894 69.7637 61.09C68.5428 61.6002 67.1579 60.4249 67.5041 59.1585C67.6499 58.5936 67.8959 58.2747 68.3515 58.0469C68.8435 57.81 69.4175 57.8009 69.8821 58.0378Z" fill="white"/>
<path d="M7.19775 59.5411V62.3291L7.77175 62.3018L8.33664 62.2744L8.3822 60.516L8.42775 58.7575L9.74886 60.5342L11.07 62.32L11.6166 62.3018L12.1633 62.2744V59.5411V56.8078L11.5984 56.7804L11.0244 56.7531V58.548V60.352L9.68509 58.5571L8.33664 56.7622H7.77175H7.19775V59.5411Z" fill="white"/>
<path d="M16.3088 59.5411V62.32H16.9011H17.4933V59.5411V56.7622H16.9011H16.3088V59.5411Z" fill="white"/>
<path d="M21.6389 56.8807C21.6116 56.9444 21.6025 58.1835 21.6116 59.6322L21.6389 62.2744L22.2129 62.3018L22.7778 62.3291V60.4887V58.6391L24.1445 60.4795L25.5111 62.32H26.0578H26.6045V59.5411V56.7622H26.0122H25.42L25.4018 58.5115L25.3745 60.2609L24.0625 58.5115L22.7596 56.7622H22.222C21.8667 56.7622 21.6662 56.7987 21.6389 56.8807Z" fill="white"/>
<path d="M30.4948 56.826C30.4584 56.8533 30.431 57.1267 30.431 57.4182V57.9467H31.3421H32.2533V60.1333V62.32H32.8455H33.4377V60.1333V57.9467H34.3033H35.1688V57.3545V56.7622H32.8637C31.5881 56.7622 30.5221 56.7896 30.4948 56.826Z" fill="white"/>
<path d="M39.1777 59.5411V62.32H41.3188H43.46V61.7733V61.2267H41.8655H40.2711V60.5889V59.9511H41.7288H43.1866V59.45V58.9489H41.7288H40.2711V58.4022V57.8556L41.8473 57.8373L43.4144 57.81L43.4417 57.2816L43.4691 56.7622H41.3188H39.1777V59.5411Z" fill="white"/>
<path d="M47.97 56.8807C47.9426 56.9444 47.9335 58.1835 47.9426 59.6322L47.97 62.2744L48.544 62.3018L49.1088 62.3291V60.4795V58.6391L50.4755 60.4795L51.8422 62.32H52.3888H52.9355V59.5411V56.7622H52.3433H51.7511L51.7328 58.5115L51.7055 60.2609L50.3935 58.5115L49.0906 56.7622H48.5531C48.1977 56.7622 47.9973 56.7987 47.97 56.8807Z" fill="white"/>
<path d="M57.5822 59.532V62.32H58.7939C60.197 62.32 60.8622 62.1833 61.4635 61.7642C63.2402 60.5433 62.9668 57.9285 60.9715 57.0082C60.5979 56.8351 60.3428 56.8078 59.0673 56.7805L57.5822 56.744V59.532ZM60.5615 58.1198C61.3268 58.4751 61.6548 59.45 61.2722 60.2609C60.9806 60.8622 60.3884 61.1356 59.3497 61.1356H58.6755V59.5411V57.9467H59.4317C59.9693 57.9467 60.2882 58.0013 60.5615 58.1198Z" fill="white"/>
<path d="M54.8306 64.7891C53.5642 64.9531 52.4344 65.5454 51.5051 66.5385C49.4733 68.7251 49.5371 72.0507 51.66 74.1645C52.4435 74.9571 53.1542 75.3671 54.1746 75.6222C55.8511 76.0505 57.5457 75.7134 58.9306 74.6656C59.4682 74.2647 60.1697 73.4811 60.1151 73.3445C60.0968 73.308 59.7233 72.9709 59.2768 72.5791L58.4751 71.8776L58.2291 72.1965C57.0537 73.7362 54.6757 73.9002 53.3 72.5245C53.0995 72.324 52.8262 71.9505 52.6895 71.6862C52.4617 71.2489 52.4344 71.1122 52.4344 70.2922C52.4344 69.5087 52.4617 69.3174 52.6622 68.9256C53.3364 67.5316 55.0037 66.7754 56.4524 67.1945C57.1266 67.3858 57.7644 67.7867 58.1653 68.2696L58.4751 68.6431L58.876 68.3151C59.0946 68.142 59.4773 67.8049 59.7233 67.5862L60.1788 67.1762L59.8235 66.7389C58.6391 65.2994 56.7257 64.5522 54.8306 64.7891Z" fill="white"/>
<path d="M9.76707 65.1445C7.59862 65.7185 6.47795 67.1672 6.96084 68.8072C7.30707 70.0189 8.45507 70.6112 11.5073 71.1578C13.5573 71.5223 14.1586 71.8229 14.1586 72.4698C14.1586 72.9163 13.8944 73.2443 13.3204 73.5085C12.8284 73.7363 12.7191 73.7545 11.48 73.7545C10.0131 73.7545 9.43907 73.636 8.35484 73.144C8.01773 72.9892 7.72618 72.8798 7.70795 72.898C7.59862 73.0347 6.73307 74.6474 6.7604 74.6656C6.85151 74.7658 8.30929 75.2943 8.91062 75.4583C9.91284 75.7225 12.054 75.7863 13.1473 75.5858C15.1882 75.2032 16.1995 74.2647 16.2906 72.6885C16.3635 71.3856 15.9991 70.7114 14.8784 70.1283C14.0766 69.7092 13.3842 69.5087 11.6166 69.1534C10.0768 68.8527 9.63951 68.7069 9.32062 68.4063C9.03818 68.142 9.03818 67.6683 9.32973 67.3767C9.98573 66.7207 12.3364 66.6934 14.1586 67.3312C14.4593 67.4314 14.7326 67.486 14.7691 67.4496C14.8328 67.3767 15.4888 65.8369 15.4888 65.7458C15.4888 65.6638 14.0948 65.2538 13.3113 65.108C12.2544 64.9076 10.6144 64.9258 9.76707 65.1445Z" fill="white"/>
<path d="M17.5297 65.2082C17.557 65.2993 18.1948 67.568 18.951 70.2467C19.7073 72.9253 20.345 75.194 20.3724 75.276C20.4179 75.4218 20.5637 75.44 21.6844 75.44H22.9508L23.051 75.0938C23.953 71.832 24.8642 68.7707 24.9097 68.88C24.937 68.9529 25.3653 70.4471 25.8573 72.2055L26.7502 75.3944L28.0257 75.4218L29.3013 75.4491L30.7499 70.3651C31.5426 67.568 32.2077 65.2264 32.235 65.1627C32.2624 65.0807 32.0073 65.0533 31.1235 65.0533H29.9846L29.857 65.4815C29.7842 65.7275 29.3468 67.3675 28.8822 69.126C28.4084 70.8935 28.0075 72.3422 27.971 72.3422C27.9437 72.3422 27.5155 70.9573 27.0235 69.2627C26.5315 67.5771 26.0486 65.9371 25.9484 65.6182L25.7753 65.0442L24.8459 65.0715L23.9166 65.0989L22.8506 68.7433C22.2675 70.7478 21.7846 72.406 21.7755 72.4333C21.7664 72.4607 21.3564 70.9847 20.8735 69.1533C20.3815 67.322 19.9259 65.6547 19.8713 65.436L19.7619 65.0533H18.623C17.5753 65.0533 17.4842 65.0624 17.5297 65.2082Z" fill="white"/>
<path d="M34.8044 70.2467V75.44H35.9889H37.1733L37.1551 70.2649L37.1278 65.0989L35.9707 65.0716L34.8044 65.0442V70.2467Z" fill="white"/>
<path d="M39.6333 66.1922V67.3311H41.2733H42.9133V71.3856V75.44H44.0522H45.1911V71.3856V67.3311L46.8129 67.3129L48.4255 67.2856V66.1922V65.0989L44.034 65.0716L39.6333 65.0533V66.1922Z" fill="white"/>
<path d="M62.5022 70.2467V75.44H63.5955H64.6889V73.39V71.34H67.1033H69.5178V73.39V75.44H70.6111H71.7044L71.6862 70.2649L71.6589 65.0989L70.5929 65.0716L69.5178 65.0442V67.1033V69.1533H67.1033H64.6889V67.1033V65.0533H63.5955H62.5022V70.2467Z" fill="white"/>
</svg>
