<svg width="74" height="74" viewBox="0 0 74 74" fill="none" xmlns="http://www.w3.org/2000/svg">
<g clip-path="url(#clip0_101_20)">
<path d="M37 74C57.4345 74 74 57.4345 74 37C74 16.5655 57.4345 0 37 0C16.5655 0 0 16.5655 0 37C0 57.4345 16.5655 74 37 74Z" fill="white"/>
<path d="M17.515 43.0486C15.9931 44.0604 16.5033 45.9913 19.7473 46.9047C23.1446 48.036 26.7678 48.3147 30.2981 47.7163C30.5012 47.7163 30.7042 47.6151 30.804 47.6151V44.1644L27.354 45.2809C26.0351 45.6871 24.7156 45.7868 23.3967 45.484C22.385 45.1798 22.5852 44.5706 23.8029 44.0632L30.8083 41.625V37.8672L21.0669 41.216C19.7963 41.6419 18.5985 42.26 17.515 43.0486ZM41.057 27.8273V37.6706C45.2173 39.6999 48.465 37.6706 48.465 32.3952C48.465 27.0172 46.5369 24.5819 40.9558 22.6538C38.0132 21.6421 34.9686 20.7258 31.9226 20.1173V49.4413L39.0256 51.5724V26.9139C39.0256 25.7974 39.0256 24.9858 39.8372 25.2901C40.9558 25.595 41.057 26.7108 41.057 27.8273ZM54.2491 40.7145C51.3064 39.7027 48.1607 39.2937 45.1162 39.598C43.4924 39.6991 41.9704 40.1038 40.5497 40.6097L40.2455 40.7108V44.6681L46.8411 42.2328C48.16 41.8266 49.4796 41.7269 50.7984 42.0297C51.8101 42.3339 51.61 42.9431 50.3923 43.4504L40.2447 47.2082V51.0643L54.2491 45.8887C55.2608 45.4825 56.1771 44.9752 56.9887 44.1637C57.6991 43.1498 57.3948 41.7291 54.2491 40.7145Z" fill="black"/>
</g>
<defs>
<clipPath id="clip0_101_20">
<rect width="74" height="74" fill="white"/>
</clipPath>
</defs>
</svg>
