<svg width="208" height="51" viewBox="0 0 208 51" fill="none" xmlns="http://www.w3.org/2000/svg">
<g clip-path="url(#clip0_101_45)">
<path d="M208 10.7117H207.017V8.2137L206.034 9.8624H205.542L205.051 8.2137V10.7117H204.068V6.46509H205.051L206.034 8.76327L207.017 6.46509H208V10.7117ZM203.576 7.2145H202.593V10.7117H201.61V7.2145H200.627V6.46509H203.576V7.2145ZM198.17 22.952H195.221V13.3596L191.781 19.6047H189.815L186.866 13.3596V22.952H183.426V6.46509H186.866L190.798 15.358L195.221 6.46509H198.17V22.952ZM179.003 22.952H175.563L174.58 20.0543H169.173L168.191 22.952H164.75L170.648 6.46509H173.105L179.003 22.952ZM174.088 17.3065L172.122 11.3112L170.156 17.3065H174.088ZM159.836 22.952H149.023V6.46509H159.836V9.31283H152.464V13.2097H158.853V16.0575H152.464V20.1043H159.836V22.952ZM144.109 9.31283H140.177V22.952H136.737V9.31283H132.313V6.46509H144.109V9.31283ZM128.382 18.1059C128.382 21.5032 125.433 23.0519 122.484 23.1019C119.535 23.1019 117.569 22.4024 116.586 20.9036L118.552 18.8553C119.535 19.7545 120.518 20.2542 122.484 20.2542C124.45 20.2542 125.433 19.5547 125.433 18.2058C125.433 16.9568 124.45 16.4072 123.467 16.2074L121.501 15.9576C118.552 15.5579 117.078 14.0091 117.078 11.3112C117.078 9.81244 117.569 8.61339 118.552 7.66414C119.535 6.76485 121.009 6.31521 122.484 6.31521C124.941 6.31521 126.416 6.96469 127.89 8.2137L125.924 10.2621C124.941 9.51267 123.958 9.11299 122.484 9.11299C121.009 9.21291 120.027 9.76248 120.027 11.2113C120.027 12.3604 121.009 12.91 121.992 13.0099L123.958 13.3097C126.416 13.6094 128.382 15.3081 128.382 18.1059ZM103.317 15.1082C103.317 19.6047 99.3849 23.2518 94.9616 23.2518C90.5384 23.2518 87.0981 19.6047 87.0981 15.1082C87.0981 10.6618 90.5384 7.01465 94.9616 7.01465C99.3849 7.01465 103.317 10.6618 103.317 15.1082ZM94.9616 0.0202026C87.0981 0.0202026 80.2176 6.71489 80.2176 15.0583L70.8797 28.5975C70.3882 28.5471 70.3882 28.4976 69.8967 28.4976C67.9308 28.4976 65.965 29.0971 63.9991 30.0963L22.0276 12.91C20.8973 7.81402 16.4249 4.01703 11.117 4.01703C5.02281 4.01703 0 9.11299 0 15.358C0 21.5531 5.02281 26.6491 11.117 26.6491C13.2308 26.6491 15.1471 26.0995 16.8186 25.0503L59.0849 42.2367C60.0678 47.4826 64.4911 50.9798 69.8972 50.9798C75.3034 50.9798 80.2181 46.4833 80.7095 40.9377L94.9621 30.3461C103.317 30.3461 110.198 23.5515 110.198 15.1582C110.197 6.81481 103.317 0.0202026 94.9616 0.0202026ZM94.9616 5.01624C100.859 5.01624 105.282 9.56263 105.282 15.1582C105.282 20.8037 100.859 25.3501 94.9616 25.3501C89.5555 25.3501 85.1323 20.8037 85.1323 15.1582C85.1323 9.56263 89.5555 5.01624 94.9616 5.01624ZM11.117 7.01465C14.2624 7.01465 17.0147 8.76327 18.3913 11.4112L14.3116 9.76248C11.0187 8.56343 7.38186 10.2121 6.0549 13.5095C4.77708 16.8568 6.25149 20.6039 9.44603 22.0527L12.8863 23.4516C12.3452 23.6015 11.7559 23.6515 11.1165 23.6515C6.59551 23.6515 2.95815 19.9544 2.95815 15.358C2.95864 10.7117 6.59551 7.01465 11.117 7.01465ZM69.8967 31.4952C74.3199 31.4952 77.7602 35.2423 77.7602 39.8386C77.7602 44.4849 74.3199 47.9822 69.8967 47.9822C66.4564 47.9822 63.9991 46.4833 62.5247 43.7355C63.9991 44.4849 64.982 44.9845 66.4564 45.4841C69.8967 46.983 73.337 44.9845 74.8114 41.7871C75.7943 38.69 74.8114 34.4434 71.3711 33.0945L67.9308 31.6956C68.4223 31.5952 69.4053 31.4952 69.8967 31.4952Z" fill="white"/>
</g>
<defs>
<clipPath id="clip0_101_45">
<rect width="208" height="51" fill="white"/>
</clipPath>
</defs>
</svg>
